<svg xmlns="http://www.w3.org/2000/svg" width="145" height="35">
  <g fill="none" fill-rule="evenodd">
    <path fill="#FFF" d="M128.68 22.26l-.33.2c-.36.2-1.04.37-1.54.37-.52 0-1-.18-1.24-.47-.22-.26-.35-.68-.35-1.2v-7.71c.93.55 1.77.88 3.16.88h1V11.4h-.84a3.2 3.2 0 0 1-3.31-3.12v-2.9l-2.97.63v15.38a4.47 4.47 0 0 0 1.07 2.86 4.35 4.35 0 0 0 3.41 1.42 4.8 4.8 0 0 0 2.88-.8l.23-.17-1.17-2.43zM116.11 25.38l3.08-.65V12.02l-3.08-.65zM115.71 7.82c0-1.06.9-1.9 1.94-1.9 1.03 0 1.93.84 1.93 1.9 0 1.09-.9 1.96-1.93 1.96a1.97 1.97 0 0 1-1.94-1.96m-9.05 1.2a5.6 5.6 0 0 0-4.56 2.23 5.44 5.44 0 0 0-4.5-2.23c-1.3 0-2.78.8-3.88 2.09V9.78l-3.08-.65v16.24l3.08-.65v-9.4a3.28 3.28 0 0 1 6.57.02v10.03l3.09-.65v-9.38a3.28 3.28 0 0 1 6.57 0v10.03l3.08-.65v-9.38a6.36 6.36 0 0 0-6.37-6.32m-25.46 0a5.6 5.6 0 0 0-4.56 2.23 5.45 5.45 0 0 0-4.5-2.23c-1.3 0-2.79.8-3.89 2.09V9.78l-3.07-.65v16.24l3.07-.65v-9.4a3.28 3.28 0 0 1 6.58.02v10.03l3.08-.65v-9.38a3.28 3.28 0 0 1 6.58 0v10.03l3.08-.65v-9.38a6.36 6.36 0 0 0-6.37-6.32m-22.18.11v10.29a3.28 3.28 0 0 1-6.58 0V9.78l-3.08-.65v10.29a6.36 6.36 0 0 0 6.37 6.33 6.36 6.36 0 0 0 6.37-6.33V9.79l-3.08-.66zm-14.3 7.75c-.75-.47-1.65-.82-2.51-1.17-1.68-.66-3.26-1.24-3.26-2.37 0-1.18 1.38-1.8 2.6-1.8.99 0 1.95.35 2.8 1.01l.27.22 1.87-2.17-.27-.21a7.55 7.55 0 0 0-4.77-1.67c-3.07 0-5.48 2-5.48 4.55 0 1.56.78 2.83 2.31 3.78.74.45 1.6.78 2.43 1.1 1.74.68 3.38 1.26 3.38 2.7 0 1.34-1.48 2.06-2.74 2.06-1.8 0-3.1-1.04-3.86-1.92l-.25-.28-2.17 2 .2.24a8.14 8.14 0 0 0 6.2 2.78c3.25 0 5.6-2.08 5.6-4.94 0-1.62-.79-2.94-2.35-3.9M8 29.46a3.3 3.3 0 0 1-4.5-1.2 3.26 3.26 0 0 1 1.21-4.45l15.97-9.16a3.3 3.3 0 0 1 4.49 1.2c.9 1.55.36 3.55-1.2 4.45L8 29.47zm19.83-15.15a6.4 6.4 0 0 0-8.7-2.31L3.19 21.17A6.31 6.31 0 0 0 .85 29.8a6.4 6.4 0 0 0 8.7 2.32l15.96-9.16a6.3 6.3 0 0 0 2.33-8.64z"/>
    <path fill="#00C890" d="M25.18 19.11a3.3 3.3 0 0 1-4.5 1.2L4.73 11.15a3.26 3.26 0 0 1-1.2-4.46A3.3 3.3 0 0 1 8 5.5l15.96 9.17c1.57.9 2.11 2.9 1.2 4.45m.34-7.1L9.55 2.84a6.4 6.4 0 0 0-8.7 2.31A6.25 6.25 0 0 0 0 8.23V26.7a6.32 6.32 0 0 1 3.08-5.48v-7.5l16.07 9.23a6.4 6.4 0 0 0 8.7-2.32A6.3 6.3 0 0 0 25.5 12"/>
  </g>
</svg>
